<svg width="800" height="400" xmlns="http://www.w3.org/2000/svg">
  <!-- Background gradient -->
  <defs>
    <linearGradient id="bg-gradient" x1="0%" y1="0%" x2="100%" y2="100%">
      <stop offset="0%" stop-color="#4338ca" stop-opacity="0.8"/>
      <stop offset="100%" stop-color="#3b82f6" stop-opacity="0.9"/>
    </linearGradient>
    <linearGradient id="mountain-gradient" x1="0%" y1="0%" x2="100%" y2="100%">
      <stop offset="0%" stop-color="#1e3a8a" stop-opacity="0.9"/>
      <stop offset="100%" stop-color="#3b82f6" stop-opacity="0.7"/>
    </linearGradient>
    <linearGradient id="water-gradient" x1="0%" y1="0%" x2="100%" y2="100%">
      <stop offset="0%" stop-color="#0ea5e9" stop-opacity="0.8"/>
      <stop offset="100%" stop-color="#38bdf8" stop-opacity="0.6"/>
    </linearGradient>
  </defs>
  
  <!-- Background -->
  <rect width="800" height="400" fill="url(#bg-gradient)"/>
  
  <!-- Mountains -->
  <path d="M0,250 L100,150 L200,220 L300,100 L400,180 L500,80 L600,200 L700,120 L800,250 L800,400 L0,400 Z" fill="url(#mountain-gradient)"/>
  
  <!-- Water/Lake -->
  <path d="M0,280 L800,280 L800,400 L0,400 Z" fill="url(#water-gradient)"/>
  
  <!-- Sun/Light source -->
  <circle cx="650" cy="80" r="40" fill="#fbbf24" opacity="0.8"/>
  <circle cx="650" cy="80" r="60" fill="#fbbf24" opacity="0.3"/>
  
  <!-- Person silhouette on mountain -->
  <circle cx="300" cy="100" r="15" fill="#1e293b"/>
  <rect x="295" y="115" width="10" height="25" fill="#1e293b"/>
  <line x1="295" y1="125" x2="280" y2="140" stroke="#1e293b" stroke-width="5"/>
  <line x1="305" y1="125" x2="320" y2="140" stroke="#1e293b" stroke-width="5"/>
  
  <!-- AI-generated effect overlay -->
  <rect width="800" height="400" fill="url(#bg-gradient)" opacity="0.1"/>
  
  <!-- Grid pattern to suggest AI/digital nature -->
  <path d="M0,0 L800,0 L800,400 L0,400 Z" stroke="#a5b4fc" stroke-width="1" fill="none" stroke-dasharray="2,20" opacity="0.3"/>
  <path d="M0,0 L800,400" stroke="#a5b4fc" stroke-width="1" fill="none" stroke-dasharray="2,20" opacity="0.3"/>
  <path d="M800,0 L0,400" stroke="#a5b4fc" stroke-width="1" fill="none" stroke-dasharray="2,20" opacity="0.3"/>
</svg>