<svg width="120" height="120" viewBox="0 0 120 120" fill="none" xmlns="http://www.w3.org/2000/svg">
  <!-- Background Circle -->
  <circle cx="60" cy="60" r="60" fill="#F0F8FF"/>
  
  <!-- Matrix/Circuit pattern -->
  <path d="M20 40 L40 40 L40 60 L60 60 L60 80 L80 80 L80 100" stroke="#0073FF" stroke-width="2" stroke-linecap="round"/>
  <path d="M100 20 L80 20 L80 40 L60 40 L60 60 L40 60 L40 80" stroke="#0073FF" stroke-width="2" stroke-linecap="round"/>
  <path d="M20 80 L20 60 L40 60" stroke="#0073FF" stroke-width="2" stroke-linecap="round"/>
  <path d="M80 40 L100 40 L100 60" stroke="#0073FF" stroke-width="2" stroke-linecap="round"/>
  
  <!-- Node points -->
  <circle cx="20" cy="40" r="4" fill="#0073FF"/>
  <circle cx="40" cy="40" r="4" fill="#0073FF"/>
  <circle cx="40" cy="60" r="4" fill="#0073FF"/>
  <circle cx="60" cy="60" r="4" fill="#0073FF"/>
  <circle cx="60" cy="40" r="4" fill="#0073FF"/>
  <circle cx="80" cy="40" r="4" fill="#0073FF"/>
  <circle cx="60" cy="80" r="4" fill="#0073FF"/>
  <circle cx="80" cy="80" r="4" fill="#0073FF"/>
  <circle cx="20" cy="60" r="4" fill="#0073FF"/>
  <circle cx="20" cy="80" r="4" fill="#0073FF"/>
  <circle cx="40" cy="80" r="4" fill="#0073FF"/>
  <circle cx="80" cy="20" r="4" fill="#0073FF"/>
  <circle cx="100" cy="20" r="4" fill="#0073FF"/>
  <circle cx="100" cy="40" r="4" fill="#0073FF"/>
  <circle cx="100" cy="60" r="4" fill="#0073FF"/>
  <circle cx="80" cy="100" r="4" fill="#0073FF"/>
  
  <!-- Central AI symbol -->
  <circle cx="60" cy="60" r="18" fill="#005CD9" fill-opacity="0.2" stroke="#0073FF" stroke-width="2"/>
  <path d="M48 60 L72 60" stroke="#0073FF" stroke-width="3" stroke-linecap="round"/>
  <path d="M54 52 L54 68" stroke="#0073FF" stroke-width="3" stroke-linecap="round"/>
  <path d="M66 52 L66 68" stroke="#0073FF" stroke-width="3" stroke-linecap="round"/>
  
  <!-- Pulsating effect -->
  <circle cx="60" cy="60" r="26" stroke="#0073FF" stroke-width="1" stroke-dasharray="6 3" opacity="0.6">
    <animate attributeName="r" values="26;30;26" dur="3s" repeatCount="indefinite"/>
    <animate attributeName="opacity" values="0.6;0.2;0.6" dur="3s" repeatCount="indefinite"/>
  </circle>
  
  <circle cx="60" cy="60" r="32" stroke="#0073FF" stroke-width="1" stroke-dasharray="6 3" opacity="0.4">
    <animate attributeName="r" values="32;38;32" dur="3s" repeatCount="indefinite" begin="0.5s"/>
    <animate attributeName="opacity" values="0.4;0.1;0.4" dur="3s" repeatCount="indefinite" begin="0.5s"/>
  </circle>
</svg> 